<?xml version="1.0" standalone="no"?>
<!DOCTYPE svg PUBLIC "-//W3C//DTD SVG 20010904//EN"
 "http://www.w3.org/TR/2001/REC-SVG-20010904/DTD/svg10.dtd">
<svg version="1.0" xmlns="http://www.w3.org/2000/svg"
 width="700.000000pt" height="700.000000pt" viewBox="0 0 700.000000 700.000000"
 preserveAspectRatio="xMidYMid meet">
<metadata>
Created by potrace 1.11, written by Peter Selinger 2001-2013
</metadata>
<g transform="translate(0.000000,700.000000) scale(0.100000,-0.100000)"
fill="#000000" stroke="none">
<path d="M5434 6059 c-173 -32 -299 -188 -297 -369 1 -144 79 -267 210 -332
59 -29 75 -32 157 -33 82 0 98 3 156 31 84 40 144 100 183 182 29 60 32 76 32
157 0 76 -5 99 -27 147 -29 62 -92 137 -142 167 -75 46 -186 66 -272 50z m162
-202 c101 -52 128 -202 51 -285 -56 -61 -154 -79 -226 -42 -87 44 -121 144
-83 240 13 33 60 79 97 97 36 16 120 11 161 -10z"/>
<path d="M3763 5860 c-204 -53 -366 -193 -446 -385 -45 -111 -50 -150 -50
-407 0 -115 -3 -209 -6 -209 -3 -1 -368 -3 -811 -4 -443 -1 -831 -5 -862 -9
-96 -12 -224 -64 -300 -124 -23 -17 -113 -108 -135 -136 -32 -39 -84 -148
-103 -216 -39 -142 -22 -328 42 -454 88 -175 236 -295 423 -347 67 -18 106
-21 353 -22 l277 -2 1 -865 c0 -476 4 -887 8 -915 26 -166 140 -346 279 -438
50 -34 159 -84 201 -94 66 -14 90 -17 176 -16 307 1 575 225 631 528 7 34 12
193 14 365 1 168 3 308 4 311 0 4 367 7 814 7 446 0 836 3 865 7 231 29 451
218 525 450 18 57 22 94 22 195 0 101 -4 138 -22 195 -65 206 -235 370 -448
433 -75 22 -97 24 -357 25 -153 1 -279 4 -280 7 0 3 -2 349 -3 770 -1 421 -5
786 -9 811 -35 246 -220 459 -466 534 -82 25 -248 28 -337 5z m297 -190 c147
-49 252 -153 306 -305 16 -46 18 -112 20 -825 1 -426 0 -782 -2 -791 -4 -13
-30 -16 -189 -16 -160 0 -209 5 -177 19 17 7 82 98 111 155 92 185 92 404 -1
588 -42 84 -114 169 -190 227 -95 72 -227 121 -343 128 -77 4 -117 6 -131 8
-8 2 -11 69 -9 225 1 254 10 298 80 401 115 171 333 248 525 186z m-429 -1012
c122 -22 248 -108 313 -216 51 -85 69 -157 63 -260 -5 -105 -8 -118 -44 -189
-73 -146 -215 -241 -383 -258 -103 -10 -143 -51 -119 -122 22 -68 -27 -64 856
-67 439 -2 812 -6 828 -10 65 -15 172 -76 223 -128 219 -224 165 -591 -108
-737 -110 -59 -84 -58 -1175 -56 -646 1 -1011 6 -1030 12 -214 72 -344 240
-346 451 -3 242 191 451 431 466 31 2 67 9 78 15 30 16 52 63 46 97 -5 29 -44
73 -67 75 -7 0 -367 2 -802 3 -613 2 -800 5 -835 15 -126 37 -220 111 -285
226 -153 270 4 616 308 679 77 16 1960 20 2048 4z m-929 -1122 c-141 -179
-182 -288 -178 -474 3 -85 9 -123 30 -185 92 -270 340 -449 622 -449 69 0 84
-3 88 -16 2 -10 3 -156 2 -327 -3 -297 -4 -312 -26 -370 -74 -190 -224 -302
-419 -311 -89 -4 -141 6 -224 46 -110 52 -198 152 -239 272 -21 62 -21 75 -24
928 -1 476 0 873 3 882 4 15 23 17 189 16 135 0 182 -4 176 -12z"/>
<path d="M5117 4890 c-33 -26 -49 -81 -35 -120 11 -32 63 -70 96 -70 49 0 98
42 107 92 6 29 -19 82 -46 102 -33 22 -91 20 -122 -4z"/>
<path d="M1813 2315 c-35 -25 -42 -70 -40 -281 2 -186 4 -204 22 -224 28 -31
58 -40 97 -30 62 18 68 41 68 278 l0 210 -26 31 c-20 24 -34 31 -63 31 -20 0
-46 -7 -58 -15z"/>
<path d="M3993 2139 c-30 -11 -54 -51 -55 -90 -1 -24 7 -39 31 -61 l31 -28
210 0 c219 0 249 5 269 44 23 46 21 76 -9 109 l-28 32 -214 1 c-117 1 -223 -2
-235 -7z"/>
<path d="M4760 2143 c-40 -12 -60 -29 -71 -61 -10 -30 -9 -41 6 -68 9 -17 28
-37 41 -43 16 -7 101 -11 233 -11 193 0 210 1 234 20 36 28 48 69 32 107 -23
54 -41 58 -260 59 -110 1 -207 -1 -215 -3z"/>
<path d="M5479 2135 c-51 -28 -63 -97 -25 -142 l24 -28 215 -3 214 -3 32 26
c50 43 41 119 -17 149 -35 18 -409 19 -443 1z"/>
<path d="M3690 2057 c-40 -20 -49 -53 -51 -187 0 -69 -6 -152 -12 -185 -16
-89 -13 -114 16 -142 30 -30 70 -37 107 -18 51 26 71 106 76 305 4 164 -4 203
-46 225 -35 18 -57 19 -90 2z"/>
<path d="M1904 1588 c-95 -25 -86 -113 28 -280 45 -68 153 -176 186 -189 24
-9 62 -6 83 6 6 4 19 21 29 37 27 44 12 78 -68 163 -62 64 -142 181 -142 205
0 15 -44 56 -65 62 -11 2 -34 1 -51 -4z"/>
<path d="M3493 1365 c-15 -7 -41 -27 -58 -45 -46 -48 -112 -94 -203 -140 -53
-26 -87 -50 -94 -65 -13 -30 -3 -88 20 -108 25 -22 74 -30 108 -17 16 6 30 11
31 11 2 0 35 18 75 41 104 58 190 128 231 188 52 76 -25 171 -110 135z"/>
<path d="M2437 1123 c-50 -26 -61 -90 -24 -136 30 -38 82 -48 286 -52 194 -5
224 3 242 64 9 31 8 43 -5 70 -9 17 -27 36 -39 40 -12 5 -103 11 -202 14 -99
3 -191 8 -205 10 -14 3 -38 -2 -53 -10z"/>
</g>
</svg>
