<svg width="155" height="69" viewBox="0 0 155 69" fill="none" xmlns="http://www.w3.org/2000/svg">
<path d="M68.988 46H63.57V17.44H72.516C74.588 17.44 76.478 17.748 78.186 18.364C79.894 18.98 81.252 19.96 82.26 21.304C83.296 22.648 83.814 24.412 83.814 26.596C83.814 28.752 83.254 30.53 82.134 31.93C81.042 33.33 79.6 34.366 77.808 35.038C76.044 35.71 74.154 36.046 72.138 36.046H68.988V46ZM72.348 21.976H68.988V31.552H72.432C74.056 31.552 75.372 31.188 76.38 30.46C77.388 29.704 77.948 28.528 78.06 26.932C78.06 25.084 77.556 23.796 76.548 23.068C75.54 22.34 74.14 21.976 72.348 21.976ZM96.7835 46.504C94.5995 46.504 92.6815 46.07 91.0295 45.202C89.4055 44.334 88.1455 43.102 87.2495 41.506C86.3535 39.882 85.9055 37.992 85.9055 35.836C85.9055 33.652 86.3535 31.762 87.2495 30.166C88.1455 28.542 89.4055 27.296 91.0295 26.428C92.6815 25.532 94.5995 25.084 96.7835 25.084C98.9955 25.084 100.913 25.518 102.537 26.386C104.161 27.254 105.421 28.486 106.317 30.082C107.213 31.678 107.661 33.568 107.661 35.752C107.661 37.908 107.213 39.798 106.317 41.422C105.421 43.046 104.161 44.306 102.537 45.202C100.913 46.07 98.9955 46.504 96.7835 46.504ZM96.7835 41.842C98.3235 41.842 99.5835 41.268 100.563 40.12C101.543 38.944 102.033 37.488 102.033 35.752C102.033 33.988 101.543 32.546 100.563 31.426C99.5835 30.306 98.3235 29.746 96.7835 29.746C95.2435 29.746 93.9835 30.334 93.0035 31.51C92.0235 32.658 91.5335 34.1 91.5335 35.836C91.5335 37.6 92.0235 39.042 93.0035 40.162C93.9835 41.282 95.2435 41.842 96.7835 41.842ZM116.875 46H111.457V16.81L116.875 16.348V46ZM127.744 46H122.326V16.81L127.744 16.348V46ZM146.467 25.63H151.927V46H148.357L147.433 43.816C146.145 44.74 144.787 45.454 143.359 45.958C141.931 46.434 140.671 46.672 139.579 46.672C137.731 46.672 136.303 46.308 135.295 45.58C134.287 44.852 133.587 43.872 133.195 42.64C132.803 41.38 132.607 39.966 132.607 38.398V25.63H138.067V38.146C138.067 39.434 138.333 40.428 138.865 41.128C139.397 41.8 140.111 42.136 141.007 42.136C142.071 42.136 143.065 41.87 143.989 41.338C144.941 40.778 145.767 40.246 146.467 39.742V25.63Z" fill="black"/>
<path d="M24.5333 50.3334V44.7334H40.4C44.0024 44.7334 46.9333 41.8025 46.9333 38.2C46.9333 34.5976 44.0024 31.6667 40.4 31.6667H35.7333V16.7333C35.7333 13.1309 32.8024 10.2 29.2 10.2C25.5976 10.2 22.6667 13.1309 22.6667 16.7333V20.4667H6.8C3.19756 20.4667 0.266663 23.3976 0.266663 27C0.266663 30.6024 3.19756 33.5333 6.8 33.5333H11.4667V50.3334C11.4667 53.9358 14.3976 56.8667 18 56.8667C21.6024 56.8667 24.5333 53.9358 24.5333 50.3334ZM24.5333 16.7333C24.5333 14.1604 26.627 12.0667 29.2 12.0667C31.773 12.0667 33.8667 14.1604 33.8667 16.7333V31.6667H30.0349C31.2466 30.4799 32 28.8261 32 27C32 23.3976 29.0691 20.4667 25.4667 20.4667H24.5333V16.7333ZM2.13333 27C2.13333 24.427 4.22703 22.3333 6.8 22.3333H25.4667C28.0396 22.3333 30.1333 24.427 30.1333 27C30.1333 29.573 28.0396 31.6667 25.4667 31.6667C24.9512 31.6667 24.5333 32.0846 24.5333 32.6C24.5333 33.1154 24.9512 33.5333 25.4667 33.5333H40.4C42.973 33.5333 45.0667 35.627 45.0667 38.2C45.0667 40.773 42.973 42.8667 40.4 42.8667H21.7333C19.1604 42.8667 17.0667 40.773 17.0667 38.2C17.0667 35.627 19.1604 33.5333 21.7333 33.5333C22.2488 33.5333 22.6667 33.1154 22.6667 32.6C22.6667 32.0846 22.2488 31.6667 21.7333 31.6667H6.8C4.22703 31.6667 2.13333 29.573 2.13333 27ZM13.3333 50.3334V33.5333H17.1651C15.9534 34.7201 15.2 36.3739 15.2 38.2C15.2 41.8025 18.1309 44.7334 21.7333 44.7334H22.6667V50.3334C22.6667 52.9063 20.573 55 18 55C15.427 55 13.3333 52.9063 13.3333 50.3334ZM45.0667 15.8C47.1251 15.8 48.8 14.1251 48.8 12.0667C48.8 10.0082 47.1251 8.33334 45.0667 8.33334C43.0082 8.33334 41.3333 10.0082 41.3333 12.0667C41.3333 14.1251 43.0082 15.8 45.0667 15.8ZM45.0667 10.2C46.0961 10.2 46.9333 11.0372 46.9333 12.0667C46.9333 13.0961 46.0961 13.9333 45.0667 13.9333C44.0372 13.9333 43.2 13.0961 43.2 12.0667C43.2 11.0372 44.0372 10.2 45.0667 10.2ZM8.66666 51.2667C8.15123 51.2667 7.73333 50.8488 7.73333 50.3334V46.6C7.73333 46.0846 8.15123 45.6667 8.66666 45.6667C9.18209 45.6667 9.59999 46.0846 9.59999 46.6V50.3334C9.59999 50.8488 9.18209 51.2667 8.66666 51.2667ZM12.096 56.225C12.4929 56.554 12.5484 57.1425 12.2199 57.5394C12.0353 57.7622 11.7686 57.8775 11.5003 57.8775C11.2907 57.8775 11.0796 57.8073 10.9055 57.6633C9.83053 56.7734 8.9742 55.6265 8.42913 54.3479C8.2273 53.8735 8.4478 53.3252 8.9217 53.1233C9.39606 52.921 9.9444 53.1415 10.1462 53.6159C10.5753 54.6223 11.2492 55.5241 12.096 56.225ZM42.4279 48.4667C42.4279 48.9821 42.01 49.4 41.4946 49.4H37.7612C37.2458 49.4 36.8279 48.9821 36.8279 48.4667C36.8279 47.9513 37.2458 47.5334 37.7612 47.5334H41.4946C42.01 47.5334 42.4279 47.9513 42.4279 48.4667ZM49.7333 48.4667C49.7333 48.9821 49.3154 49.4 48.8 49.4H45.2279C44.7125 49.4 44.2946 48.9821 44.2946 48.4667C44.2946 47.9513 44.7125 47.5334 45.2279 47.5334H48.8C49.3154 47.5334 49.7333 47.9513 49.7333 48.4667ZM34.9612 48.4667C34.9612 48.9821 34.5433 49.4 34.0279 49.4H30.2946C29.7791 49.4 29.3612 48.9821 29.3612 48.4667C29.3612 47.9513 29.7791 47.5334 30.2946 47.5334H34.0279C34.5433 47.5334 34.9612 47.9513 34.9612 48.4667ZM25.9205 55.5005C26.3011 55.8482 26.3279 56.4385 25.9802 56.8189C25.0387 57.8502 23.8511 58.6496 22.5463 59.1303C22.4401 59.1695 22.3307 59.1881 22.2236 59.1881C21.8439 59.1881 21.4867 58.9543 21.3476 58.577C21.1694 58.0936 21.4174 57.5567 21.9009 57.3784C22.9266 57.0006 23.8604 56.3718 24.6019 55.56C24.9489 55.1804 25.5395 55.1526 25.9205 55.5005ZM28.2667 49.2388V50.9246C28.2667 51.6925 28.1668 52.4551 27.9701 53.1901C27.8583 53.607 27.4815 53.8824 27.0692 53.8824C26.9894 53.8824 26.9084 53.8719 26.8272 53.8499C26.3295 53.7169 26.0339 53.205 26.1674 52.7071C26.3218 52.1296 26.4002 51.5299 26.4002 50.9246V49.2388C26.4002 48.7234 26.8181 48.3055 27.3336 48.3055C27.849 48.3055 28.2667 48.7234 28.2667 49.2388ZM19.4803 58.7334C19.4803 59.2488 19.0624 59.6667 18.5469 59.6667H16.4756C15.854 59.6667 15.2329 59.6011 14.63 59.4712C14.1264 59.3627 13.8056 58.8664 13.9141 58.3624C14.0217 57.8584 14.5147 57.538 15.0229 57.6465C15.4968 57.7487 15.9859 57.8 16.4759 57.8H18.5472C19.0624 57.8 19.4803 58.2179 19.4803 58.7334V58.7334ZM40.743 20.9333C40.743 20.3495 41.2162 19.8763 41.8 19.8763C42.3838 19.8763 42.857 20.3495 42.857 20.9333C42.857 21.5169 42.3838 21.9901 41.8 21.9901C41.2162 21.9901 40.743 21.5169 40.743 20.9333Z" fill="url(#paint0_linear)"/>
<defs>
<linearGradient id="paint0_linear" x1="7.38193" y1="54.1939" x2="49.9265" y2="11.6493" gradientUnits="userSpaceOnUse">
<stop stop-color="#107EFF"/>
<stop offset="1" stop-color="#8F16FF"/>
</linearGradient>
</defs>
</svg>
