<svg width="213" height="85" viewBox="0 0 213 85" fill="none" xmlns="http://www.w3.org/2000/svg">
<path d="M107.128 57H100.42V21.64H111.496C114.061 21.64 116.401 22.0213 118.516 22.784C120.631 23.5467 122.312 24.76 123.56 26.424C124.843 28.088 125.484 30.272 125.484 32.976C125.484 35.6453 124.791 37.8467 123.404 39.58C122.052 41.3133 120.267 42.596 118.048 43.428C115.864 44.26 113.524 44.676 111.028 44.676H107.128V57ZM111.288 27.256H107.128V39.112H111.392C113.403 39.112 115.032 38.6613 116.28 37.76C117.528 36.824 118.221 35.368 118.36 33.392C118.36 31.104 117.736 29.5093 116.488 28.608C115.24 27.7067 113.507 27.256 111.288 27.256ZM141.541 57.624C138.837 57.624 136.463 57.0867 134.417 56.012C132.407 54.9373 130.847 53.412 129.737 51.436C128.628 49.4253 128.073 47.0853 128.073 44.416C128.073 41.712 128.628 39.372 129.737 37.396C130.847 35.3853 132.407 33.8427 134.417 32.768C136.463 31.6587 138.837 31.104 141.541 31.104C144.28 31.104 146.655 31.6413 148.665 32.716C150.676 33.7907 152.236 35.316 153.345 37.292C154.455 39.268 155.009 41.608 155.009 44.312C155.009 46.9813 154.455 49.3213 153.345 51.332C152.236 53.3427 150.676 54.9027 148.665 56.012C146.655 57.0867 144.28 57.624 141.541 57.624ZM141.541 51.852C143.448 51.852 145.008 51.1413 146.221 49.72C147.435 48.264 148.041 46.4613 148.041 44.312C148.041 42.128 147.435 40.3427 146.221 38.956C145.008 37.5693 143.448 36.876 141.541 36.876C139.635 36.876 138.075 37.604 136.861 39.06C135.648 40.4813 135.041 42.2667 135.041 44.416C135.041 46.6 135.648 48.3853 136.861 49.772C138.075 51.1587 139.635 51.852 141.541 51.852ZM166.416 57H159.708V20.86L166.416 20.288V57ZM179.873 57H173.165V20.86L179.873 20.288V57ZM203.054 31.78H209.814V57H205.394L204.25 54.296C202.656 55.44 200.974 56.324 199.206 56.948C197.438 57.5373 195.878 57.832 194.526 57.832C192.238 57.832 190.47 57.3813 189.222 56.48C187.974 55.5787 187.108 54.3653 186.622 52.84C186.137 51.28 185.894 49.5293 185.894 47.588V31.78H192.654V47.276C192.654 48.8707 192.984 50.1013 193.642 50.968C194.301 51.8 195.185 52.216 196.294 52.216C197.612 52.216 198.842 51.8867 199.986 51.228C201.165 50.5347 202.188 49.876 203.054 49.252V31.78Z" fill="url(#paint0_linear)"/>
<path d="M35.3333 66.3333V58.3333H58C63.1463 58.3333 67.3333 54.1463 67.3333 49C67.3333 43.8537 63.1463 39.6667 58 39.6667H51.3333V18.3333C51.3333 13.187 47.1463 9 42 9C36.8537 9 32.6667 13.187 32.6667 18.3333V23.6667H10C4.85369 23.6667 0.666687 27.8537 0.666687 33C0.666687 38.1463 4.85369 42.3333 10 42.3333H16.6667V66.3333C16.6667 71.4797 20.8537 75.6667 26 75.6667C31.1463 75.6667 35.3333 71.4797 35.3333 66.3333ZM35.3333 18.3333C35.3333 14.6577 38.3243 11.6667 42 11.6667C45.6757 11.6667 48.6667 14.6577 48.6667 18.3333V39.6667H43.1927C44.9237 37.9713 46 35.6087 46 33C46 27.8537 41.813 23.6667 36.6667 23.6667H35.3333V18.3333ZM3.33335 33C3.33335 29.3243 6.32435 26.3333 10 26.3333H36.6667C40.3423 26.3333 43.3333 29.3243 43.3333 33C43.3333 36.6757 40.3423 39.6667 36.6667 39.6667C35.9303 39.6667 35.3333 40.2637 35.3333 41C35.3333 41.7363 35.9303 42.3333 36.6667 42.3333H58C61.6757 42.3333 64.6667 45.3243 64.6667 49C64.6667 52.6757 61.6757 55.6667 58 55.6667H31.3333C27.6577 55.6667 24.6667 52.6757 24.6667 49C24.6667 45.3243 27.6577 42.3333 31.3333 42.3333C32.0697 42.3333 32.6667 41.7363 32.6667 41C32.6667 40.2637 32.0697 39.6667 31.3333 39.6667H10C6.32435 39.6667 3.33335 36.6757 3.33335 33ZM19.3334 66.3333V42.3333H24.8073C23.0763 44.0287 22 46.3913 22 49C22 54.1463 26.187 58.3333 31.3333 58.3333H32.6667V66.3333C32.6667 70.009 29.6757 73 26 73C22.3244 73 19.3334 70.009 19.3334 66.3333ZM64.6667 17C67.6073 17 70 14.6073 70 11.6667C70 8.726 67.6073 6.33333 64.6667 6.33333C61.726 6.33333 59.3333 8.726 59.3333 11.6667C59.3333 14.6073 61.726 17 64.6667 17ZM64.6667 9C66.1373 9 67.3333 10.196 67.3333 11.6667C67.3333 13.1373 66.1373 14.3333 64.6667 14.3333C63.196 14.3333 62 13.1373 62 11.6667C62 10.196 63.196 9 64.6667 9ZM12.6667 67.6667C11.9304 67.6667 11.3334 67.0697 11.3334 66.3333V61C11.3334 60.2637 11.9304 59.6667 12.6667 59.6667C13.403 59.6667 14 60.2637 14 61V66.3333C14 67.0697 13.403 67.6667 12.6667 67.6667ZM17.5657 74.75C18.1327 75.22 18.212 76.0607 17.7427 76.6277C17.479 76.946 17.098 77.1107 16.7147 77.1107C16.4154 77.1107 16.1137 77.0103 15.865 76.8047C14.3294 75.5333 13.106 73.895 12.3274 72.0683C12.039 71.3907 12.354 70.6073 13.031 70.319C13.7087 70.03 14.492 70.345 14.7804 71.0227C15.3934 72.4603 16.356 73.7487 17.5657 74.75ZM60.897 63.6667C60.897 64.403 60.3 65 59.5637 65H54.2303C53.494 65 52.897 64.403 52.897 63.6667C52.897 62.9303 53.494 62.3333 54.2303 62.3333H59.5637C60.3 62.3333 60.897 62.9303 60.897 63.6667ZM71.3333 63.6667C71.3333 64.403 70.7363 65 70 65H64.897C64.1607 65 63.5637 64.403 63.5637 63.6667C63.5637 62.9303 64.1607 62.3333 64.897 62.3333H70C70.7363 62.3333 71.3333 62.9303 71.3333 63.6667ZM50.2303 63.6667C50.2303 64.403 49.6333 65 48.897 65H43.5637C42.8273 65 42.2303 64.403 42.2303 63.6667C42.2303 62.9303 42.8273 62.3333 43.5637 62.3333H48.897C49.6333 62.3333 50.2303 62.9303 50.2303 63.6667ZM37.315 73.715C37.8587 74.2117 37.897 75.055 37.4003 75.5983C36.0553 77.0717 34.3587 78.2137 32.4947 78.9003C32.343 78.9563 32.1867 78.983 32.0337 78.983C31.4913 78.983 30.981 78.649 30.7823 78.11C30.5277 77.4193 30.882 76.6523 31.5727 76.3977C33.038 75.858 34.372 74.9597 35.4314 73.8C35.927 73.2577 36.7707 73.218 37.315 73.715ZM40.6667 64.7697V67.178C40.6667 68.275 40.524 69.3643 40.243 70.4143C40.0833 71.01 39.545 71.4033 38.956 71.4033C38.842 71.4033 38.7263 71.3883 38.6103 71.357C37.8993 71.167 37.477 70.4357 37.6677 69.7243C37.8884 68.8993 38.0004 68.0427 38.0004 67.178V64.7697C38.0004 64.0333 38.5974 63.4363 39.3337 63.4363C40.07 63.4363 40.6667 64.0333 40.6667 64.7697ZM28.1147 78.3333C28.1147 79.0697 27.5177 79.6667 26.7814 79.6667H23.8224C22.9344 79.6667 22.047 79.573 21.1857 79.3873C20.4664 79.2323 20.008 78.5233 20.163 77.8033C20.3167 77.0833 21.021 76.6257 21.747 76.7807C22.424 76.9267 23.1227 77 23.8227 77H26.7817C27.5177 77 28.1147 77.597 28.1147 78.3333V78.3333ZM58.49 24.3333C58.49 23.4993 59.166 22.8233 60 22.8233C60.834 22.8233 61.51 23.4993 61.51 24.3333C61.51 25.167 60.834 25.843 60 25.843C59.166 25.843 58.49 25.167 58.49 24.3333Z" fill="url(#paint1_linear)"/>
<defs>
<linearGradient id="paint0_linear" x1="99" y1="11" x2="224" y2="69" gradientUnits="userSpaceOnUse">
<stop stop-color="#107EFF"/>
<stop offset="1" stop-color="#8F16FF"/>
</linearGradient>
<linearGradient id="paint1_linear" x1="10.8314" y1="71.8483" x2="71.6094" y2="11.0704" gradientUnits="userSpaceOnUse">
<stop stop-color="#107EFF"/>
<stop offset="1" stop-color="#8F16FF"/>
</linearGradient>
</defs>
</svg>
