<svg width="70" height="70" viewBox="0 0 70 70" fill="none" xmlns="http://www.w3.org/2000/svg">
<path d="M34.5333 51.3334V45.7333H50.4C54.0024 45.7333 56.9333 42.8024 56.9333 39.2C56.9333 35.5976 54.0024 32.6667 50.4 32.6667H45.7333V17.7333C45.7333 14.1309 42.8024 11.2 39.2 11.2C35.5976 11.2 32.6667 14.1309 32.6667 17.7333V21.4667H16.8C13.1976 21.4667 10.2667 24.3976 10.2667 28C10.2667 31.6024 13.1976 34.5333 16.8 34.5333H21.4667V51.3334C21.4667 54.9358 24.3976 57.8667 28 57.8667C31.6024 57.8667 34.5333 54.9358 34.5333 51.3334ZM34.5333 17.7333C34.5333 15.1604 36.627 13.0667 39.2 13.0667C41.773 13.0667 43.8667 15.1604 43.8667 17.7333V32.6667H40.0349C41.2466 31.4799 42 29.8261 42 28C42 24.3976 39.0691 21.4667 35.4667 21.4667H34.5333V17.7333ZM12.1333 28C12.1333 25.427 14.227 23.3333 16.8 23.3333H35.4667C38.0396 23.3333 40.1333 25.427 40.1333 28C40.1333 30.573 38.0396 32.6667 35.4667 32.6667C34.9512 32.6667 34.5333 33.0846 34.5333 33.6C34.5333 34.1154 34.9512 34.5333 35.4667 34.5333H50.4C52.973 34.5333 55.0667 36.627 55.0667 39.2C55.0667 41.773 52.973 43.8667 50.4 43.8667H31.7333C29.1604 43.8667 27.0667 41.773 27.0667 39.2C27.0667 36.627 29.1604 34.5333 31.7333 34.5333C32.2488 34.5333 32.6667 34.1154 32.6667 33.6C32.6667 33.0846 32.2488 32.6667 31.7333 32.6667H16.8C14.227 32.6667 12.1333 30.573 12.1333 28ZM23.3333 51.3334V34.5333H27.1651C25.9534 35.7201 25.2 37.3739 25.2 39.2C25.2 42.8024 28.1309 45.7333 31.7333 45.7333H32.6667V51.3334C32.6667 53.9063 30.573 56 28 56C25.427 56 23.3333 53.9063 23.3333 51.3334ZM55.0667 16.8C57.1251 16.8 58.8 15.1251 58.8 13.0667C58.8 11.0082 57.1251 9.33334 55.0667 9.33334C53.0082 9.33334 51.3333 11.0082 51.3333 13.0667C51.3333 15.1251 53.0082 16.8 55.0667 16.8ZM55.0667 11.2C56.0961 11.2 56.9333 12.0372 56.9333 13.0667C56.9333 14.0961 56.0961 14.9333 55.0667 14.9333C54.0372 14.9333 53.2 14.0961 53.2 13.0667C53.2 12.0372 54.0372 11.2 55.0667 11.2ZM18.6667 52.2667C18.1512 52.2667 17.7333 51.8488 17.7333 51.3334V47.6C17.7333 47.0846 18.1512 46.6667 18.6667 46.6667C19.1821 46.6667 19.6 47.0846 19.6 47.6V51.3334C19.6 51.8488 19.1821 52.2667 18.6667 52.2667ZM22.096 57.225C22.4929 57.554 22.5484 58.1425 22.2199 58.5394C22.0353 58.7622 21.7686 58.8775 21.5003 58.8775C21.2907 58.8775 21.0796 58.8073 20.9055 58.6633C19.8305 57.7734 18.9742 56.6265 18.4291 55.3479C18.2273 54.8735 18.4478 54.3252 18.9217 54.1233C19.3961 53.921 19.9444 54.1415 20.1462 54.6159C20.5753 55.6222 21.2492 56.5241 22.096 57.225ZM52.4279 49.4667C52.4279 49.9821 52.01 50.4 51.4946 50.4H47.7612C47.2458 50.4 46.8279 49.9821 46.8279 49.4667C46.8279 48.9513 47.2458 48.5334 47.7612 48.5334H51.4946C52.01 48.5334 52.4279 48.9513 52.4279 49.4667ZM59.7333 49.4667C59.7333 49.9821 59.3154 50.4 58.8 50.4H55.2279C54.7125 50.4 54.2946 49.9821 54.2946 49.4667C54.2946 48.9513 54.7125 48.5334 55.2279 48.5334H58.8C59.3154 48.5334 59.7333 48.9513 59.7333 49.4667ZM44.9612 49.4667C44.9612 49.9821 44.5433 50.4 44.0279 50.4H40.2946C39.7791 50.4 39.3612 49.9821 39.3612 49.4667C39.3612 48.9513 39.7791 48.5334 40.2946 48.5334H44.0279C44.5433 48.5334 44.9612 48.9513 44.9612 49.4667ZM35.9205 56.5005C36.3011 56.8482 36.3279 57.4385 35.9802 57.8189C35.0387 58.8502 33.8511 59.6496 32.5463 60.1302C32.4401 60.1695 32.3307 60.1881 32.2236 60.1881C31.8439 60.1881 31.4867 59.9543 31.3476 59.577C31.1694 59.0936 31.4174 58.5567 31.9009 58.3784C32.9266 58.0006 33.8604 57.3718 34.6019 56.56C34.9489 56.1804 35.5395 56.1526 35.9205 56.5005ZM38.2667 50.2388V51.9246C38.2667 52.6925 38.1668 53.4551 37.9701 54.1901C37.8583 54.607 37.4815 54.8824 37.0692 54.8824C36.9894 54.8824 36.9084 54.8719 36.8272 54.8499C36.3295 54.7169 36.0339 54.205 36.1674 53.7071C36.3218 53.1296 36.4002 52.5299 36.4002 51.9246V50.2388C36.4002 49.7234 36.8181 49.3055 37.3336 49.3055C37.849 49.3055 38.2667 49.7234 38.2667 50.2388ZM29.4803 59.7334C29.4803 60.2488 29.0624 60.6667 28.5469 60.6667H26.4756C25.854 60.6667 25.2329 60.6011 24.63 60.4711C24.1264 60.3627 23.8056 59.8664 23.9141 59.3624C24.0217 58.8584 24.5147 58.538 25.0229 58.6465C25.4968 58.7487 25.9859 58.8 26.4759 58.8H28.5472C29.0624 58.8 29.4803 59.2179 29.4803 59.7334ZM50.743 21.9333C50.743 21.3495 51.2162 20.8763 51.8 20.8763C52.3838 20.8763 52.857 21.3495 52.857 21.9333C52.857 22.5169 52.3838 22.9901 51.8 22.9901C51.2162 22.9901 50.743 22.5169 50.743 21.9333Z" fill="url(#paint0_linear)"/>
<defs>
<linearGradient id="paint0_linear" x1="17.3819" y1="55.1939" x2="59.9265" y2="12.6493" gradientUnits="userSpaceOnUse">
<stop stop-color="#107EFF"/>
<stop offset="1" stop-color="#8F16FF"/>
</linearGradient>
</defs>
</svg>
