<svg width="224" height="100" viewBox="0 0 224 100" fill="none" xmlns="http://www.w3.org/2000/svg">
<path d="M121.128 64H114.42V28.64H125.496C128.061 28.64 130.401 29.0213 132.516 29.784C134.631 30.5467 136.312 31.76 137.56 33.424C138.843 35.088 139.484 37.272 139.484 39.976C139.484 42.6453 138.791 44.8467 137.404 46.58C136.052 48.3133 134.267 49.596 132.048 50.428C129.864 51.26 127.524 51.676 125.028 51.676H121.128V64ZM125.288 34.256H121.128V46.112H125.392C127.403 46.112 129.032 45.6613 130.28 44.76C131.528 43.824 132.221 42.368 132.36 40.392C132.36 38.104 131.736 36.5093 130.488 35.608C129.24 34.7067 127.507 34.256 125.288 34.256ZM155.541 64.624C152.837 64.624 150.463 64.0867 148.417 63.012C146.407 61.9373 144.847 60.412 143.737 58.436C142.628 56.4253 142.073 54.0853 142.073 51.416C142.073 48.712 142.628 46.372 143.737 44.396C144.847 42.3853 146.407 40.8427 148.417 39.768C150.463 38.6587 152.837 38.104 155.541 38.104C158.28 38.104 160.655 38.6413 162.665 39.716C164.676 40.7907 166.236 42.316 167.345 44.292C168.455 46.268 169.009 48.608 169.009 51.312C169.009 53.9813 168.455 56.3213 167.345 58.332C166.236 60.3427 164.676 61.9027 162.665 63.012C160.655 64.0867 158.28 64.624 155.541 64.624ZM155.541 58.852C157.448 58.852 159.008 58.1413 160.221 56.72C161.435 55.264 162.041 53.4613 162.041 51.312C162.041 49.128 161.435 47.3427 160.221 45.956C159.008 44.5693 157.448 43.876 155.541 43.876C153.635 43.876 152.075 44.604 150.861 46.06C149.648 47.4813 149.041 49.2667 149.041 51.416C149.041 53.6 149.648 55.3853 150.861 56.772C152.075 58.1587 153.635 58.852 155.541 58.852ZM180.416 64H173.708V27.86L180.416 27.288V64ZM193.873 64H187.165V27.86L193.873 27.288V64ZM217.054 38.78H223.814V64H219.394L218.25 61.296C216.656 62.44 214.974 63.324 213.206 63.948C211.438 64.5373 209.878 64.832 208.526 64.832C206.238 64.832 204.47 64.3813 203.222 63.48C201.974 62.5787 201.108 61.3653 200.622 59.84C200.137 58.28 199.894 56.5293 199.894 54.588V38.78H206.654V54.276C206.654 55.8707 206.984 57.1013 207.642 57.968C208.301 58.8 209.185 59.216 210.294 59.216C211.612 59.216 212.842 58.8867 213.986 58.228C215.165 57.5347 216.188 56.876 217.054 56.252V38.78Z" fill="black"/>
<path d="M49.3333 73.3334V65.3334H72C77.1463 65.3334 81.3333 61.1464 81.3333 56C81.3333 50.8537 77.1463 46.6667 72 46.6667H65.3333V25.3333C65.3333 20.187 61.1463 16 56 16C50.8537 16 46.6667 20.187 46.6667 25.3333V30.6667H24C18.8537 30.6667 14.6667 34.8537 14.6667 40C14.6667 45.1464 18.8537 49.3334 24 49.3334H30.6667V73.3334C30.6667 78.4797 34.8537 82.6667 40 82.6667C45.1463 82.6667 49.3333 78.4797 49.3333 73.3334ZM49.3333 25.3333C49.3333 21.6577 52.3243 18.6667 56 18.6667C59.6756 18.6667 62.6666 21.6577 62.6666 25.3333V46.6667H57.1927C58.9237 44.9714 60 42.6087 60 40C60 34.8537 55.813 30.6667 50.6667 30.6667H49.3333V25.3333ZM17.3333 40C17.3333 36.3243 20.3243 33.3333 24 33.3333H50.6667C54.3423 33.3333 57.3333 36.3243 57.3333 40C57.3333 43.6757 54.3423 46.6667 50.6667 46.6667C49.9303 46.6667 49.3333 47.2637 49.3333 48C49.3333 48.7364 49.9303 49.3334 50.6667 49.3334H72C75.6756 49.3334 78.6666 52.3244 78.6666 56C78.6666 59.6757 75.6756 62.6667 72 62.6667H45.3333C41.6577 62.6667 38.6667 59.6757 38.6667 56C38.6667 52.3244 41.6577 49.3334 45.3333 49.3334C46.0697 49.3334 46.6667 48.7364 46.6667 48C46.6667 47.2637 46.0697 46.6667 45.3333 46.6667H24C20.3243 46.6667 17.3333 43.6757 17.3333 40ZM33.3333 73.3334V49.3334H38.8073C37.0763 51.0287 36 53.3914 36 56C36 61.1464 40.187 65.3334 45.3333 65.3334H46.6667V73.3334C46.6667 77.009 43.6757 80 40 80C36.3243 80 33.3333 77.009 33.3333 73.3334ZM78.6666 24C81.6073 24 84 21.6073 84 18.6667C84 15.726 81.6073 13.3333 78.6666 13.3333C75.726 13.3333 73.3333 15.726 73.3333 18.6667C73.3333 21.6073 75.726 24 78.6666 24ZM78.6666 16C80.1373 16 81.3333 17.196 81.3333 18.6667C81.3333 20.1373 80.1373 21.3333 78.6666 21.3333C77.196 21.3333 76 20.1373 76 18.6667C76 17.196 77.196 16 78.6666 16ZM26.6667 74.6667C25.9303 74.6667 25.3333 74.0697 25.3333 73.3334V68C25.3333 67.2637 25.9303 66.6667 26.6667 66.6667C27.403 66.6667 28 67.2637 28 68V73.3334C28 74.0697 27.403 74.6667 26.6667 74.6667ZM31.5657 81.75C32.1327 82.22 32.212 83.0607 31.7427 83.6277C31.479 83.946 31.098 84.1107 30.7147 84.1107C30.4153 84.1107 30.1137 84.0104 29.865 83.8047C28.3293 82.5334 27.106 80.895 26.3273 79.0684C26.039 78.3907 26.354 77.6074 27.031 77.319C27.7087 77.03 28.492 77.345 28.7803 78.0227C29.3933 79.4604 30.356 80.7487 31.5657 81.75ZM74.897 70.6667C74.897 71.403 74.3 72 73.5636 72H68.2303C67.494 72 66.897 71.403 66.897 70.6667C66.897 69.9304 67.494 69.3334 68.2303 69.3334H73.5636C74.3 69.3334 74.897 69.9304 74.897 70.6667ZM85.3333 70.6667C85.3333 71.403 84.7363 72 84 72H78.897C78.1606 72 77.5636 71.403 77.5636 70.6667C77.5636 69.9304 78.1606 69.3334 78.897 69.3334H84C84.7363 69.3334 85.3333 69.9304 85.3333 70.6667ZM64.2303 70.6667C64.2303 71.403 63.6333 72 62.897 72H57.5636C56.8273 72 56.2303 71.403 56.2303 70.6667C56.2303 69.9304 56.8273 69.3334 57.5636 69.3334H62.897C63.6333 69.3334 64.2303 69.9304 64.2303 70.6667ZM51.315 80.715C51.8587 81.2117 51.897 82.055 51.4003 82.5984C50.0553 84.0717 48.3586 85.2137 46.4946 85.9004C46.343 85.9564 46.1867 85.983 46.0337 85.983C45.4913 85.983 44.981 85.649 44.7823 85.11C44.5277 84.4194 44.882 83.6524 45.5727 83.3977C47.038 82.858 48.372 81.9597 49.4313 80.8C49.927 80.2577 50.7707 80.218 51.315 80.715ZM54.6667 71.7697V74.178C54.6667 75.275 54.524 76.3644 54.243 77.4144C54.0833 78.01 53.545 78.4034 52.956 78.4034C52.842 78.4034 52.7263 78.3884 52.6103 78.357C51.8993 78.167 51.477 77.4357 51.6677 76.7244C51.8883 75.8994 52.0003 75.0427 52.0003 74.178V71.7697C52.0003 71.0334 52.5973 70.4364 53.3337 70.4364C54.07 70.4364 54.6667 71.0334 54.6667 71.7697ZM42.1147 85.3334C42.1147 86.0697 41.5177 86.6667 40.7813 86.6667H37.8223C36.9343 86.6667 36.047 86.573 35.1857 86.3874C34.4663 86.2324 34.008 85.5234 34.163 84.8034C34.3167 84.0834 35.021 83.6257 35.747 83.7807C36.424 83.9267 37.1227 84 37.8227 84H40.7817C41.5177 84 42.1147 84.597 42.1147 85.3334V85.3334ZM72.49 31.3333C72.49 30.4993 73.166 29.8233 74 29.8233C74.834 29.8233 75.51 30.4993 75.51 31.3333C75.51 32.167 74.834 32.843 74 32.843C73.166 32.843 72.49 32.167 72.49 31.3333Z" fill="url(#paint0_linear)"/>
<defs>
<linearGradient id="paint0_linear" x1="24.8313" y1="78.8484" x2="85.6093" y2="18.0704" gradientUnits="userSpaceOnUse">
<stop stop-color="#107EFF"/>
<stop offset="1" stop-color="#8F16FF"/>
</linearGradient>
</defs>
</svg>
